<svg width="156" height="33" viewBox="0 0 156 33" fill="none" xmlns="http://www.w3.org/2000/svg">
  <g>
    <path
      d="M35.3699 20.49C29.3399 22.58 23.8999 26.12 17.6699 27.64C13.6099 28.63 9.2599 27.67 6.0999 24.97C3.8899 23.09 3.1699 20.25 4.4099 17.51C6.2899 14.36 8.4699 14.29 10.9399 17.29C11.0799 18.22 11.2999 19.13 11.5899 20.03C11.8599 20.99 13.2999 21.02 13.5599 20.03C15.2799 13.35 9.4299 9.01003 3.5499 12.97C-2.2601 16.88 -0.260096 25.4 4.7899 28.9C11.9899 33.89 20.1399 31.59 27.4699 28.22C31.7399 26.25 35.8999 24.17 40.5599 23.28C45.5999 22.31 49.0899 23.69 52.9799 26.7C53.7799 27.32 55.3499 27.06 55.2399 25.76C54.5399 17.13 40.9099 18.58 35.3799 20.5L35.3699 20.49Z"
      fill="" />
    <path
      d="M151.8 13.97C145.92 10.01 140.07 14.35 141.79 21.03C142.04 22.02 143.49 21.99 143.76 21.03C144.05 20.14 144.27 19.22 144.41 18.29C146.88 15.29 149.05 15.37 150.94 18.51C152.18 21.25 151.46 24.09 149.25 25.97C146.08 28.67 141.74 29.63 137.68 28.64C131.46 27.12 126.01 23.58 119.98 21.49C114.45 19.58 100.82 18.12 100.12 26.75C100.02 28.04 101.58 28.31 102.38 27.69C106.27 24.68 109.76 23.31 114.8 24.27C119.46 25.16 123.61 27.24 127.89 29.21C135.22 32.58 143.37 34.88 150.57 29.89C155.62 26.39 157.62 17.87 151.81 13.96L151.8 13.97Z"
      fill="" />
    <path
      d="M69.0199 22.6899C66.1399 20.4699 64.0899 17.4599 61.8099 14.7399C59.0799 11.4799 55.7499 9.21985 51.6799 7.64985C51.4099 7.54985 51.4099 7.09985 51.7599 7.12985C60.3199 7.98985 65.3599 16.0799 69.5899 22.2799C69.8299 22.6299 69.3199 22.9199 69.0199 22.6899Z"
      fill="" />
    <path
      d="M67.6399 13.6002C67.5799 13.9402 66.9799 13.9402 66.9099 13.6002C66.1799 9.8002 65.3999 1.3102 70.6899 0.0102014C71.0099 -0.0697986 71.3099 0.340201 71.0299 0.560201C66.7799 3.9602 68.4199 9.0702 67.6399 13.6002Z"
      fill="" />
    <path
      d="M102.94 7.64008C98.8699 9.21008 95.5399 11.4701 92.8099 14.7301C90.5299 17.4601 88.4799 20.4701 85.5999 22.6801C85.2999 22.9101 84.7999 22.6201 85.0299 22.2701C89.2599 16.0701 94.2999 7.98009 102.86 7.12009C103.2 7.09009 103.2 7.54008 102.94 7.64008Z"
      fill="" />
    <path
      d="M86.9898 13.6002C86.2098 9.0702 87.8598 3.9602 83.5998 0.560201C83.3198 0.340201 83.6199 -0.0697986 83.9399 0.0102014C89.2299 1.3102 88.4398 9.8102 87.7199 13.6002C87.6599 13.9402 87.0498 13.9402 86.9898 13.6002Z"
      fill="" />
    <path
      d="M78.2698 26.0901C78.1398 26.1901 77.9798 26.2201 77.8398 26.2001C77.6998 26.2201 77.5398 26.1901 77.4098 26.0901C72.4798 22.2601 68.1698 5.29011 77.0898 3.16011C77.1798 3.04011 77.3298 2.96011 77.5198 2.98011C77.6298 2.99011 77.7298 3.01011 77.8398 3.03011C77.9498 3.01011 78.0498 2.99011 78.1598 2.98011C78.3498 2.96011 78.4998 3.04011 78.5898 3.16011C87.5098 5.29011 83.2098 22.2501 78.2698 26.0901Z"
      fill="" />
  </g>

</svg>