<svg width="150" height="25" viewBox="0 0 150 25" fill="none" xmlns="http://www.w3.org/2000/svg">
  <g>
    <path fill-rule="evenodd" clip-rule="evenodd"
      d="M97.1338 1.40048C95.6975 0.533006 93.7624 -0.386727 91.548 0.156752C88.7451 0.846551 86.79 2.80098 85.8724 5.81102C85.3736 7.44145 85.5931 9.1555 86.4708 10.6292C86.7801 11.1517 87.5182 11.6325 88.1865 11.4966C88.5655 11.4235 88.8748 11.204 89.0543 10.88C89.3535 10.3574 89.1939 9.83485 89.0942 9.51085C88.5256 7.00249 89.8024 5.02715 91.3684 4.37916C91.6078 4.27464 92.2861 4.20148 92.5654 4.23284C94.6701 4.50458 96.0566 5.39296 96.9144 7.02339C97.6924 8.5075 97.8221 10.2738 97.2834 12.0088C96.7149 13.796 95.5079 15.3219 94.1414 15.9699C92.4457 16.7746 90.6503 17.0986 88.6653 16.9523C85.613 16.7224 82.4012 15.8863 78.5609 14.3185C74.4114 12.6254 70.3218 10.5455 66.3718 8.52841L64.0875 7.36829C61.2048 5.90508 58.2224 4.37916 55.0604 3.36536C51.1503 2.10073 48.0582 1.53635 45.0258 1.51545H44.7864C44.5969 1.51545 44.4174 1.51545 44.2279 1.51545C41.026 1.59906 38.3827 2.46653 36.1483 4.14923C33.6846 6.00959 32.8666 8.41344 32.6173 10.1066C32.2682 12.4268 32.7868 14.9143 33.9738 16.5865C36.1384 19.6697 39.1906 21.0911 42.8214 20.694C45.9635 20.3491 48.4472 18.1124 49.1653 14.9874C49.7539 12.4164 48.6267 9.90801 46.4323 8.89421C45.4248 8.43434 44.4274 8.4657 43.5296 8.98827C42.9212 9.35408 42.5122 10.1693 42.8813 10.9113C43.0508 11.2458 43.38 11.643 44.0383 11.6743C44.6667 11.7057 45.1854 11.946 45.5146 12.3746C45.8238 12.7822 45.9435 13.3152 45.8438 13.9214C45.6343 15.2592 44.946 16.158 43.7491 16.6806C42.8114 17.0882 41.8239 17.0882 40.7367 16.6806C38.662 15.9072 37.6146 14.7575 37.3453 12.9494C36.9962 10.5874 37.6745 8.92556 39.4998 7.71319C41.1457 6.60533 43.0209 6.06185 45.2154 6.0514C45.2752 6.0514 45.3251 6.0514 45.3849 6.0514C48.7364 6.0514 52.2176 6.82481 55.7287 8.35073C59.579 10.023 63.4492 11.8415 67.1897 13.6078L70.2819 15.0606C73.5336 16.5865 77.5834 18.4782 81.7229 19.6697C84.1767 20.37 86.82 21.0075 89.6229 21.0075C89.8722 21.0075 90.1116 21.0075 90.361 20.9971C95.9568 20.7671 99.6874 17.8302 101.154 12.5209C102.351 8.19396 100.655 3.51168 97.1239 1.40048H97.1338Z"
       />
    <path fill-rule="evenodd" clip-rule="evenodd"
      d="M132.504 8.75831C131.347 8.46566 130.13 8.36115 128.933 8.27754C125.422 8.0476 121.911 7.93264 118.47 7.07561C115.747 6.39627 113.103 5.52879 110.879 3.62662C110.729 3.5012 110.38 3.45939 110.251 3.55346C110.111 3.65797 110.021 4.02377 110.091 4.20145C110.34 4.79719 110.6 5.40337 110.959 5.9364C113.463 9.67804 116.585 12.7299 120.375 14.9874C122.988 16.5447 125.781 17.5585 128.335 17.6003C130.469 17.6107 132.045 17.3599 133.492 16.482C135.217 15.4368 136.005 13.7123 135.596 11.8833C135.207 10.1484 134.07 9.15546 132.514 8.75831H132.504Z"
       />
    <path fill-rule="evenodd" clip-rule="evenodd"
      d="M108.555 10.3991C108.236 10.1274 107.837 9.93927 107.448 9.77205C107.288 9.70934 106.999 9.75114 106.899 9.86611C106.8 9.98108 106.829 10.2633 106.879 10.4514C107.049 11.0053 107.298 11.5488 107.438 12.1132C107.937 14.1094 107.548 16.0116 106.829 17.8929C106.401 19.0321 105.952 20.1713 105.672 21.3523C105.413 22.4706 105.652 23.5576 106.57 24.3414C107.508 25.1462 108.565 25.1567 109.642 24.7072C110.41 24.3937 110.999 23.8293 111.428 23.0977C112.196 21.7913 112.605 20.3908 112.575 18.844C112.485 15.3845 111.119 12.5731 108.555 10.4096V10.3991Z"
       />
    <path fill-rule="evenodd" clip-rule="evenodd"
      d="M25.6252 4.20154C25.685 4.01341 25.5952 3.65806 25.4556 3.564C25.3259 3.46993 24.9967 3.53264 24.8272 3.64761C24.3085 3.98206 23.8397 4.40012 23.321 4.73456C21.5555 5.84242 19.6104 6.47997 17.6354 6.99209C14.7327 7.7446 11.7802 7.96408 8.80776 8.16266C7.132 8.27762 5.44627 8.37169 3.79047 8.60162C2.45385 8.78975 1.29678 9.44819 0.56863 10.7128C-0.528591 12.6255 7.00299e-05 14.9143 1.85537 16.2417C2.6733 16.827 3.55107 17.1823 4.47872 17.4018C5.63579 17.6735 6.83276 17.7049 8.00978 17.5377C8.73793 17.4331 9.46609 17.3286 10.1743 17.1614C12.7976 16.5448 15.1417 15.2801 17.3362 13.6915C20.3984 11.4653 22.9918 8.75839 25.0466 5.49752C25.296 5.10037 25.4855 4.6614 25.6252 4.21199V4.20154Z"
       />
    <path fill-rule="evenodd" clip-rule="evenodd"
      d="M28.9069 17.9242C27.9393 15.489 27.68 13.0538 28.7872 10.5977C28.8171 10.535 28.847 10.4723 28.867 10.3991C29.0266 9.887 28.8171 9.61527 28.3084 9.76159C27.9892 9.8452 27.67 10.0124 27.4007 10.2215C25.286 11.8414 23.9394 14.0153 23.3709 16.6805C22.8821 18.9903 23.0816 21.206 24.3783 23.2336C25.0965 24.3623 26.1339 24.9267 27.3209 24.9999C28.6475 24.9999 29.8046 24.1324 29.9941 22.92C30.1038 22.2198 30.0938 21.4568 29.9243 20.767C29.6849 19.795 29.2859 18.8544 28.9168 17.9242H28.9069Z"
       />
    <path fill-rule="evenodd" clip-rule="evenodd"
      d="M149.811 12.1028C149.771 11.9774 149.701 11.852 149.691 11.7161C149.491 9.42725 147.836 8.7479 146.1 8.3612C144.165 7.93269 142.409 9.57357 142.17 11.852C142.11 12.4477 142.17 13.0644 142.17 13.4929C142.21 13.8691 142.23 14.0782 142.25 14.2768C142.489 16.7433 144.155 17.3181 145.681 17.2868C146 17.2868 146.319 17.2345 146.639 17.1927C149.212 16.8374 150.519 14.7366 149.811 12.0924V12.1028Z"
       />
  </g>

</svg>