<?xml version="1.0" encoding="utf-8"?>
<!-- Generator: Adobe Illustrator 27.5.0, SVG Export Plug-In . SVG Version: 6.00 Build 0)  -->
<svg version="1.1" id="Capa_1" xmlns="http://www.w3.org/2000/svg" xmlns:xlink="http://www.w3.org/1999/xlink" x="0px" y="0px"
	 viewBox="0 0 120 120" style="enable-background:new 0 0 120 120;" xml:space="preserve">
<g>
	<rect x="19" y="37.5" transform="matrix(0.866 -0.5 0.5 0.866 -26.3105 31.9854)" class="st0" width="55.1" height="55.2"/>
	<line class="st0" x1="17" y1="50.6" x2="43.9" y2="98.6"/>
	<polyline class="st0" points="49.7,73.7 39.4,55.8 48.9,42.7 59,60.6 	"/>
	<ellipse transform="matrix(0.8905 -0.455 0.455 0.8905 -29.0771 29.5129)" class="st0" cx="46.8" cy="75.2" rx="3.3" ry="4.1"/>
	<ellipse transform="matrix(0.8905 -0.455 0.455 0.8905 -22.3777 32.5249)" class="st0" cx="56.4" cy="62.7" rx="3.3" ry="4.1"/>
	<line class="st0" x1="52.6" y1="49.6" x2="43.5" y2="62"/>
	<path class="st0" d="M59.6,30.2c4.9-7.6,13.5-12.6,23.2-12.6c15.3,0,27.7,12.4,27.7,27.7S98.1,73,82.8,73"/>
	<circle class="st0" cx="82.8" cy="45.3" r="9.7"/>
</g>
</svg>
