<?xml version="1.0" encoding="utf-8"?>
<!-- Generator: Adobe Illustrator 27.5.0, SVG Export Plug-In . SVG Version: 6.00 Build 0)  -->
<svg version="1.1" id="Capa_1" xmlns="http://www.w3.org/2000/svg" xmlns:xlink="http://www.w3.org/1999/xlink" x="0px" y="0px"
	 viewBox="0 0 120 120" style="enable-background:new 0 0 120 120;" xml:space="preserve">
<style type="text/css">
	.Sombra_x0020_paralela{fill:none;}
	.Esquinas_x0020_redondeadas_x0020_2_x0020_pt_x002E_{fill:#FFFFFF;stroke:#000000;stroke-miterlimit:10;}
	.Reflejo_x0020_vivo_x0020_X{fill:none;}
	.Bisel_x0020_suave{fill:url(#SVGID_1_);}
	.Atardecer{fill:#FFFFFF;}
	.Follaje_GS{fill:#FFDD00;}
	.Pompadour_GS{fill-rule:evenodd;clip-rule:evenodd;fill:#51AEE2;}
	.st0{fill:none;stroke:#E98B19;stroke-width:3;stroke-linecap:round;stroke-miterlimit:10;}
</style>
<linearGradient id="SVGID_1_" gradientUnits="userSpaceOnUse" x1="-84.7489" y1="-266.7227" x2="-84.0418" y2="-266.0156">
	<stop  offset="0" style="stop-color:#E6E6EB"/>
	<stop  offset="0.1738" style="stop-color:#E2E2E6"/>
	<stop  offset="0.352" style="stop-color:#D5D4D8"/>
	<stop  offset="0.5323" style="stop-color:#C0BFC2"/>
	<stop  offset="0.7139" style="stop-color:#A4A2A4"/>
	<stop  offset="0.8949" style="stop-color:#828282"/>
	<stop  offset="1" style="stop-color:#6B6E6E"/>
</linearGradient>
<g>
	<polygon class="st0" points="18.2,37.6 18.2,49.5 61.8,61.1 103.7,49.8 103.7,38.2 60.8,27.6 	"/>
	<polyline class="st0" points="20.5,38.9 60.8,49.2 101.1,38.9 	"/>
	<polyline class="st0" points="23.4,52.4 23.4,94.7 61.5,106 98.2,94.4 98.2,51.8 	"/>
	<line class="st0" x1="61.5" y1="106" x2="61.5" y2="61.1"/>
	<line class="st0" x1="40.5" y1="100.8" x2="40.5" y2="56.3"/>
	<line class="st0" x1="82.4" y1="56.9" x2="82.4" y2="99.6"/>
	<polyline class="st0" points="36.9,55 36.9,44.4 61.5,36 84.7,43.7 84.7,54.7 	"/>
	<path class="st0" d="M61.5,33.1c0,0-9.7-29-26.1-16.5c0,0-8.4,12.9,24.9,19.4"/>
	<path class="st0" d="M61.8,33.1c0,0,9.7-29,26.1-16.5c0,0,8.4,12.9-24.9,19.4"/>
</g>
</svg>
