<?xml version="1.0" encoding="utf-8"?>
<!-- Generator: Adobe Illustrator 27.5.0, SVG Export Plug-In . SVG Version: 6.00 Build 0)  -->
<svg version="1.1" xmlns="http://www.w3.org/2000/svg" xmlns:xlink="http://www.w3.org/1999/xlink" x="0px" y="0px"
	 viewBox="0 0 120 120" style="enable-background:new 0 0 120 120;" xml:space="preserve">
<style type="text/css">
	.st0{fill:#E98B19;}
	.st1{fill:none;stroke:#E98B19;stroke-width:3;stroke-linecap:round;stroke-miterlimit:10;}
</style>
<g id="circulo">
	<circle class="st0" cx="60.1" cy="29.3" r="3.5"/>
</g>
<g id="percha">
	<path class="st1" d="M51.5,30.7c0,0,1.4-7.8,6.4-8.9c0,0,7.5-2.2,9.6,6.1c0,0,1.9,5.8-4.5,8.9c0,0-2.1,1.1-2.1,3.2v10.7l-46.8,23
		c0,0-7.7,3.7-5.4,9.1c0,0,0.8,3.4,5,4.2h92c0,0,6.4,0.2,7.5-4c0,0,2.4-6.2-6.6-9.7L61.9,51"/>
	<path class="st1" d="M60.9,81.8c0,0-7.3-6.9-10.4-13.4c0,0-2.2-4.8,0.6-6.2c0,0,5.4-2.7,9.6,3.5c0,0,5.8-6.2,9.6-3.5
		c0,0,6.9,5.4-8.5,18.4"/>
	<line class="st1" x1="60.7" y1="86.9" x2="60.7" y2="82.5"/>
</g>
</svg>
