<svg width="178" height="47" viewBox="0 0 178 47" fill="none" xmlns="http://www.w3.org/2000/svg">
  <g>
    <path fill-rule="evenodd" clip-rule="evenodd"
      d="M76.94 8.27012C76.74 7.60012 76.26 7.37012 75.72 7.37012C74.94 7.37012 74.15 7.41012 73.38 7.55012C69.56 8.26012 65.75 9.03012 61.93 9.71012C60.49 9.96012 59.01 10.0401 57.54 10.1501C55.23 10.3201 52.92 10.4101 50.62 10.6201C47.27 10.9201 43.91 11.1001 40.61 11.8001C38.55 12.2401 36.61 13.0801 34.73 14.0101C34 14.3701 33.34 14.9601 32.76 15.5501C31.86 16.4601 31.58 17.5901 31.75 18.8901C32.09 21.3901 33.56 23.0101 35.75 23.9601C37.97 24.9201 40.31 25.4801 42.74 25.7501C46.45 26.1601 50.08 25.7301 53.7 24.9701C55.04 24.6901 56.34 24.2701 57.67 23.9501C59.69 23.4601 61.51 22.5501 63.25 21.4501C66.24 19.5701 68.93 17.2901 71.63 15.0301C72.64 14.1801 73.43 13.1401 74.14 12.0201C74.84 10.9101 75.71 9.92012 76.51 8.87012C76.67 8.67012 76.82 8.46012 76.95 8.29012L76.94 8.27012Z" />
    <path fill-rule="evenodd" clip-rule="evenodd"
      d="M90.14 6.8999C89.95 6.9699 89.81 6.9799 89.77 7.0499C88.98 8.4699 88.19 9.8899 87.42 11.3199C87.12 11.8699 86.87 12.4599 86.56 13.0099C85.49 14.8899 84.65 16.8699 83.99 18.9299C83.96 19.0299 83.93 19.1299 83.89 19.2299C82.09 23.6399 81.18 28.2799 80.35 32.9399C79.96 35.1299 79.96 37.3399 80.21 39.5499C80.39 41.0999 80.97 42.4999 82.11 43.6199C82.89 44.3899 83.56 45.2899 84.59 45.7799C87.68 47.2499 91.11 46.9099 93.57 43.6399C94.85 41.9499 95.74 40.0799 96.13 37.9399C96.81 34.2299 96.78 30.5099 96.39 26.7899C96.13 24.3299 95.81 21.8799 95.38 19.4499C94.92 16.8399 93.82 14.4599 92.51 12.1499C91.71 10.7399 91.15 9.1999 90.48 7.7199C90.36 7.4499 90.25 7.1799 90.14 6.9099V6.8999Z" />
    <path fill-rule="evenodd" clip-rule="evenodd"
      d="M12.8601 12.4501C13.7101 12.8601 14.3601 13.1901 14.7701 13.8001C14.7401 13.9501 14.7501 14.0801 14.6901 14.1501C13.7401 15.2101 12.4401 15.7301 11.1501 16.1101C10.0401 16.4401 8.84008 16.1001 7.77008 15.6301C6.06008 14.8801 4.53008 13.8801 3.60008 12.1801C3.19008 11.4301 2.90008 10.6501 2.94008 9.78006C2.98008 8.89006 3.03008 8.00006 3.12008 7.11006C3.20008 6.33006 3.61008 5.73006 4.25008 5.30006C5.21008 4.65006 6.16008 4.00006 7.36008 3.85006C7.98008 3.77006 8.58008 3.54006 9.20008 3.41006C11.8601 2.86006 14.5201 2.86006 17.1801 3.38006C20.5801 4.05006 23.9701 4.79006 27.3901 5.38006C30.0301 5.84006 32.7001 6.15006 35.3601 6.46006C38.3901 6.80006 41.4301 7.08006 44.4701 7.34006C47.6201 7.61006 50.7801 7.59006 53.9301 7.39006C56.3501 7.23006 58.7201 6.71006 61.0401 6.02006C61.2901 5.95006 61.5401 5.84006 61.7501 5.70006C61.8501 5.63006 61.9201 5.42006 61.9001 5.28006C61.8801 5.15006 61.7501 5.02006 61.6401 4.93006C61.5701 4.87006 61.4501 4.84006 61.3501 4.84006C59.8301 4.81006 58.3101 4.50006 56.7901 4.84006C56.3301 4.94006 55.8501 4.97006 55.3801 4.95006C51.4901 4.78006 47.6101 4.80006 43.7201 4.38006C38.3901 3.80006 33.0601 3.17006 27.7601 2.34006C24.2801 1.80006 20.8501 1.00006 17.3901 0.340058C16.6201 0.190058 15.8301 0.130058 15.0501 0.0600582C14.6301 0.0200582 14.2101 0.0800582 13.7901 0.0500582C10.9601 -0.179942 8.24008 0.450058 5.55008 1.19006C3.99008 1.62006 2.71008 2.58006 1.60008 3.70006C0.860081 4.45006 0.420081 5.42006 0.250081 6.50006C8.08835e-05 7.96006 -0.109919 9.45006 0.140081 10.8901C0.490081 12.9201 1.58008 14.6301 3.14008 15.9501C4.30008 16.9401 5.63008 17.6901 7.08008 18.2301C8.50008 18.7601 9.95008 18.8501 11.4301 18.8001C11.5901 18.8001 11.7601 18.8001 11.9001 18.7401C13.5201 18.0001 15.2201 17.4201 16.5401 16.1401C17.9001 14.8101 17.8701 12.9901 16.5001 11.7001C15.0701 10.3601 13.4601 9.68006 11.4801 9.95006C10.5501 10.0801 10.0901 10.4801 10.0201 11.3001C9.93008 12.2801 10.3601 13.0601 11.1501 13.3401C11.5201 13.4701 11.8901 13.4601 12.2001 13.2001C12.4401 13.0001 12.6101 12.7301 12.8701 12.4301L12.8601 12.4501Z" />
    <path fill-rule="evenodd" clip-rule="evenodd"
      d="M76.04 21.3501C75.95 21.8101 75.8101 22.2601 75.6601 22.7101C74.9701 24.7501 74.14 26.7501 73.6 28.8201C72.69 32.3301 70.93 35.4101 69.08 38.4701C68.2901 39.7801 67.0901 40.6301 65.7601 41.2701C64.4401 41.9101 63.31 41.2601 63.19 39.7801C63.12 38.9001 63.1 37.9801 63.28 37.1201C63.72 35.0101 64.4101 32.9701 65.5501 31.1101C66.1001 30.2201 66.7 29.3501 67.25 28.4601C69.4 25.0001 72.44 22.4501 75.77 20.2101C75.81 20.1901 75.87 20.2101 76.14 20.2101C76.1 20.6301 76.11 20.9901 76.04 21.3401V21.3501ZM67.33 37.4201C68.9401 34.6001 70.6601 31.8201 71.4101 28.6001C71.6201 27.6901 71.94 26.8101 72.27 25.7201C71.26 26.3501 70.66 27.0901 70.13 27.8501C69.07 29.3501 68.05 30.8801 67.1 32.4501C66.14 34.0301 65.62 35.8101 65.24 37.6101C65.15 38.0601 65.15 38.5401 65.08 39.2801C66.18 38.7501 66.88 38.2201 67.33 37.4301V37.4201Z" />
    <path fill-rule="evenodd" clip-rule="evenodd"
      d="M100.42 8.27012C100.62 7.60012 101.1 7.37012 101.64 7.37012C102.42 7.37012 103.21 7.41012 103.98 7.55012C107.8 8.26012 111.61 9.03012 115.43 9.71012C116.87 9.96012 118.35 10.0401 119.82 10.1501C122.13 10.3201 124.44 10.4101 126.74 10.6201C130.09 10.9201 133.45 11.1001 136.75 11.8001C138.81 12.2401 140.75 13.0801 142.63 14.0101C143.36 14.3701 144.02 14.9601 144.6 15.5501C145.5 16.4601 145.78 17.5901 145.61 18.8901C145.27 21.3901 143.8 23.0101 141.61 23.9601C139.39 24.9201 137.05 25.4801 134.62 25.7501C130.91 26.1601 127.28 25.7301 123.66 24.9701C122.32 24.6901 121.02 24.2701 119.69 23.9501C117.67 23.4601 115.85 22.5501 114.11 21.4501C111.12 19.5701 108.43 17.2901 105.73 15.0301C104.72 14.1801 103.93 13.1401 103.22 12.0201C102.52 10.9101 101.65 9.92012 100.85 8.87012C100.69 8.67012 100.54 8.46012 100.41 8.29012L100.42 8.27012Z" />
    <path fill-rule="evenodd" clip-rule="evenodd"
      d="M164.5 12.4501C163.65 12.8601 163 13.1901 162.59 13.8001C162.62 13.9501 162.61 14.0801 162.67 14.1501C163.62 15.2101 164.92 15.7301 166.21 16.1101C167.32 16.4401 168.52 16.1001 169.59 15.6301C171.3 14.8801 172.83 13.8801 173.76 12.1801C174.17 11.4301 174.46 10.6501 174.42 9.78006C174.38 8.89006 174.33 8.00006 174.24 7.11006C174.16 6.33006 173.75 5.73006 173.11 5.30006C172.15 4.65006 171.2 4.00006 170 3.85006C169.38 3.77006 168.78 3.54006 168.16 3.41006C165.5 2.86006 162.84 2.86006 160.18 3.38006C156.78 4.05006 153.39 4.79006 149.97 5.38006C147.33 5.84006 144.66 6.15006 142 6.46006C138.97 6.80006 135.93 7.08006 132.89 7.34006C129.74 7.61006 126.58 7.59006 123.43 7.39006C121.01 7.23006 118.64 6.71006 116.32 6.02006C116.07 5.95006 115.82 5.84006 115.61 5.70006C115.51 5.63006 115.44 5.42006 115.46 5.28006C115.48 5.15006 115.61 5.02006 115.72 4.93006C115.79 4.87006 115.91 4.84006 116.01 4.84006C117.53 4.81006 119.05 4.50006 120.57 4.84006C121.03 4.94006 121.51 4.97006 121.98 4.95006C125.87 4.78006 129.75 4.80006 133.64 4.38006C138.97 3.80006 144.3 3.17006 149.6 2.34006C153.08 1.80006 156.51 1.00006 159.97 0.340058C160.74 0.190058 161.53 0.130058 162.31 0.0600582C162.73 0.0200582 163.15 0.0800582 163.57 0.0500582C166.4 -0.179942 169.12 0.450058 171.81 1.19006C173.37 1.62006 174.65 2.58006 175.76 3.70006C176.5 4.45006 176.94 5.42006 177.11 6.50006C177.35 7.97006 177.46 9.46006 177.21 10.9001C176.86 12.9301 175.77 14.6401 174.21 15.9601C173.05 16.9501 171.72 17.7001 170.27 18.2401C168.85 18.7701 167.4 18.8601 165.92 18.8101C165.76 18.8101 165.59 18.8101 165.45 18.7501C163.83 18.0101 162.13 17.4301 160.81 16.1501C159.45 14.8201 159.48 13.0001 160.85 11.7101C162.28 10.3701 163.89 9.69006 165.87 9.96006C166.8 10.0901 167.26 10.4901 167.33 11.3101C167.42 12.2901 166.99 13.0701 166.2 13.3501C165.83 13.4801 165.46 13.4701 165.15 13.2101C164.91 13.0101 164.74 12.7401 164.48 12.4401L164.5 12.4501Z" />
    <path fill-rule="evenodd" clip-rule="evenodd"
      d="M101.21 20.2201C101.48 20.2201 101.55 20.2001 101.58 20.2201C104.92 22.4601 107.95 25.0001 110.1 28.4701C110.65 29.3601 111.25 30.2201 111.8 31.1201C112.94 32.9701 113.63 35.0101 114.07 37.1301C114.25 37.9901 114.23 38.9101 114.16 39.7901C114.04 41.2701 112.91 41.9201 111.59 41.2801C110.25 40.6401 109.06 39.7801 108.27 38.4801C106.42 35.4301 104.66 32.3501 103.75 28.8301C103.21 26.7501 102.38 24.7601 101.69 22.7201C101.54 22.2701 101.41 21.8201 101.31 21.3601C101.24 21.0101 101.24 20.6501 101.21 20.2301V20.2201ZM112.27 39.2801C112.2 38.5301 112.2 38.0601 112.11 37.6101C111.73 35.8101 111.22 34.0301 110.25 32.4501C109.3 30.8801 108.27 29.3501 107.22 27.8501C106.69 27.0901 106.09 26.3501 105.08 25.7201C105.41 26.8101 105.73 27.7001 105.94 28.6001C106.69 31.8301 108.41 34.6001 110.02 37.4201C110.47 38.2101 111.17 38.7401 112.27 39.2701V39.2801Z" />
  </g>

</svg>