<svg width="146" height="184" viewBox="0 0 146 184" fill="none" xmlns="http://www.w3.org/2000/svg">

  <g>
    <path fill-rule="evenodd" clip-rule="evenodd"
      d="M49.1118 103.344C47.9816 104.101 46.8234 104.84 45.7025 105.643C45.0674 106.102 44.4136 106.466 43.657 106.672C43.0125 106.849 42.368 107.018 41.7329 107.214C40.1637 107.7 38.5945 107.522 37.016 107.289C36.3715 107.195 35.8858 106.812 35.4468 106.382C33.588 104.578 32.5886 102.409 32.7661 99.7822C32.8315 98.866 32.9529 97.9499 33.093 97.0338C33.3358 95.4166 34.2699 94.3415 35.7643 93.7526C37.1654 93.1917 38.6505 93.1169 40.1357 93.0889C42.6482 93.0421 44.6471 94.2293 46.5152 95.7437C46.7113 95.9027 46.8608 96.1177 47.0382 96.3046C47.8602 97.2021 48.6821 98.1088 49.4948 99.0063C51.2041 97.3329 52.465 95.6503 52.9414 94.3228C54.2397 90.677 54.9963 86.9284 54.8468 83.0302C54.8281 82.6189 54.8468 82.2076 54.8748 81.8056C55.1177 78.917 54.8001 76.0846 54.193 73.2614C54.0809 72.7566 53.9128 72.2705 53.8287 71.7657C53.3337 68.8865 52.0914 66.3064 50.5689 63.8665C49.831 62.6886 48.7475 61.8006 47.5333 61.1088C45.0767 59.7253 42.4147 59.3794 39.6593 59.6785C38.6412 59.7907 37.6698 60.1179 36.7918 60.7629C36.5116 62.0716 36.3715 63.3991 36.6423 64.7172C37.0066 66.5494 37.6418 67.1477 39.295 66.942C39.6967 66.5214 39.6406 66.0633 39.5005 65.5305C39.2857 64.6611 39.6873 64.1656 40.5653 64.0815C41.6301 63.9693 42.2746 64.4554 42.368 65.4837C42.4708 66.6055 42.0411 67.6058 41.462 68.5032C40.995 69.223 40.2477 69.5876 39.3417 69.4847C38.7346 69.41 38.1181 69.3913 37.511 69.3165C36.4836 69.1856 35.7363 68.6434 35.1572 67.774C34.2699 66.4372 33.971 64.9509 34.0084 63.3897C34.027 62.4175 34.1671 61.4547 34.2886 60.4825C34.4006 59.6131 34.8864 58.9587 35.6336 58.5287C36.7918 57.8556 38.0434 57.3508 39.3791 57.2293C42.4334 56.9395 45.4037 57.2293 48.1871 58.6876C50.27 59.7813 52.026 61.2116 53.1002 63.3617C53.7913 64.7359 54.66 66.0353 55.155 67.4749C56.7336 72.1022 57.7704 76.8417 57.4341 81.7869C57.4061 82.1422 57.4061 82.5067 57.4341 82.862C57.677 86.7508 56.9671 90.5088 55.8276 94.2107C55.2765 96.0148 54.4078 97.5853 53.1842 99.0063C52.493 99.8102 51.9326 100.726 51.2881 101.633C51.7365 102.344 52.1661 102.979 52.5397 103.643C52.9133 104.307 53.2589 104.998 53.5485 105.7C54.2397 107.354 54.9122 109.009 55.5567 110.682C55.7342 111.15 55.8462 111.664 55.8929 112.168C55.9583 112.776 55.977 113.402 55.921 114.01C55.6221 117.123 55.3979 120.245 54.9402 123.33C54.5853 125.733 53.5672 127.929 52.1941 129.939C51.998 130.229 51.7365 130.491 51.4749 130.734C49.6629 132.389 47.8322 134.006 45.8053 135.417C43.8531 136.764 41.6862 137.698 39.6126 138.801C38.3236 139.484 36.8945 139.933 35.3347 139.755C33.9897 139.605 32.8408 139.138 31.9254 138.184C31.0474 137.259 30.2815 136.231 29.4689 135.24C29.3755 135.128 29.3008 134.978 29.2447 134.838C28.4228 132.678 28.0585 130.5 29.0766 128.294C29.4409 127.509 29.8052 126.714 30.1601 125.92C30.8606 124.349 32.1776 123.508 33.7095 122.994C34.4287 122.76 35.2133 122.723 35.9792 122.657C38.1742 122.451 39.4632 123.816 40.612 125.396C40.9576 127.013 41.6768 128.631 40.4813 130.229C39.5846 131.426 37.8659 131.94 36.4929 131.37C36.0352 131.173 35.755 130.827 35.6336 130.36C35.5589 130.07 35.6242 129.799 35.9045 129.014C36.605 128.724 37.4176 129.238 38.1462 128.771C38.6319 127.855 38.2769 126.995 37.8192 126.181C37.567 125.723 37.072 125.434 36.5489 125.415C35.4094 125.368 34.2792 125.452 33.3919 126.294C33.1397 126.537 32.8875 126.808 32.7381 127.126C32.3271 127.948 32.0002 128.808 31.5985 129.64C31.365 130.126 31.393 130.612 31.3837 131.127C31.3277 133.361 32.6447 134.838 34.1111 136.231C34.7929 136.876 35.6616 137.035 36.5489 136.792C37.3335 136.586 38.1088 136.287 38.8467 135.95C39.8648 135.483 40.8829 134.987 41.8543 134.426C43.5356 133.454 45.2075 132.463 46.6646 131.145C47.5333 130.351 48.4767 129.64 49.3547 128.855C49.7656 128.481 50.1392 128.042 50.4288 127.565C51.4656 125.901 52.2035 124.087 52.4743 122.143C52.8947 119.095 53.3523 116.057 53.3523 112.972C53.3523 112.458 53.3243 111.963 53.1282 111.477C52.437 109.766 51.7738 108.046 51.1013 106.335C50.5876 105.017 50.1206 104.307 49.1305 103.381L49.1118 103.344ZM47.6921 100.895C47.2811 100.38 47.0382 99.9878 46.7113 99.6793C46.1042 99.1278 45.6091 98.4734 45.0394 97.9032C44.1053 96.9777 43.0405 96.1551 41.7235 95.8092C40.145 95.3979 38.5852 95.6503 37.0346 95.9962C36.1473 96.1925 35.6336 96.8094 35.5589 97.7349C35.4935 98.5949 35.4655 99.4643 35.4281 100.324C35.3627 101.745 36.0819 102.858 36.8945 103.923C37.2215 104.353 37.6324 104.596 38.1835 104.653C39.1549 104.746 40.1076 104.802 41.0697 104.54C42.4521 104.157 43.8158 103.783 44.9647 102.848C45.357 102.531 45.8333 102.316 46.2443 102.016C46.6926 101.699 47.1223 101.343 47.7014 100.885L47.6921 100.895Z"
      fill="" />
    <path fill-rule="evenodd" clip-rule="evenodd"
      d="M53.4364 134.006C53.4737 134.455 53.5671 134.679 53.5018 134.81C52.6238 136.539 51.7271 138.25 50.8304 139.97C50.737 140.148 50.6249 140.325 50.4941 140.484C49.1211 142.139 47.8321 143.859 46.0761 145.149C45.9547 145.242 45.8333 145.336 45.7212 145.439C42.2092 148.776 37.8005 150.206 33.2424 151.309C32.6446 151.45 32.0281 151.506 31.4397 151.225C30.9633 150.991 30.8699 150.346 31.337 150.122C32.2056 149.701 33.1116 149.337 34.0083 148.991C35.7176 148.318 37.4456 147.682 39.1549 147.009C39.6779 146.803 40.1917 146.56 40.6493 146.243C42.8724 144.691 45.0674 143.102 46.8794 141.054C48.8035 138.867 50.765 136.707 52.7172 134.548C52.8479 134.408 53.0347 134.314 53.4364 134.025V134.006Z"
      fill="" />
    <path fill-rule="evenodd" clip-rule="evenodd"
      d="M46.5431 48.3394C46.7393 48.4048 47.2343 48.5264 47.6826 48.7601C48.1777 49.0125 48.6634 49.321 49.0837 49.6855C50.4007 50.8167 51.699 51.9758 52.9693 53.1631C53.3803 53.537 53.7165 54.0137 54.0154 54.4812C55.6033 56.9397 56.9483 59.5198 57.7236 62.3617C58.0318 63.4834 58.1626 64.6613 58.3681 65.8205C58.4241 66.1477 58.3681 66.4468 58.0131 66.5683C57.6582 66.6899 57.4154 66.4936 57.2752 66.1944C56.6214 64.7548 55.9209 63.3339 55.3418 61.8569C54.6693 60.1368 53.8753 58.4822 52.9787 56.8743C52.3528 55.7525 51.6056 54.7336 50.6529 53.8548C49.2238 52.5367 47.8414 51.1719 46.2069 50.1062C45.992 49.966 45.7959 49.7977 45.6091 49.6295C45.1327 49.2275 44.9646 48.8723 45.114 48.6199C45.2635 48.3581 45.6278 48.2646 46.5431 48.3581V48.3394Z"
      fill="" />
    <path fill-rule="evenodd" clip-rule="evenodd"
      d="M63.2719 50.7605C63.2999 50.4707 63.3186 50.3212 63.3372 50.1716C63.524 48.3113 64.841 47.8813 66.046 47.9C66.2982 47.9 66.5503 47.9374 66.8025 47.9748C68.8387 48.2365 69.8662 49.8257 69.3058 51.8169C69.2777 51.9104 69.2217 52.0038 69.2124 52.1067C69.0536 53.8361 67.7459 54.3409 66.3729 54.6307C64.8504 54.9579 63.4587 53.7145 63.2719 51.9945C63.2252 51.5458 63.2719 51.0784 63.2719 50.7605Z"
      fill="" />
    <path fill-rule="evenodd" clip-rule="evenodd"
      d="M57.9851 142.307C57.9384 140.98 56.6775 140.017 55.4165 140.11C54.1089 140.194 53.1935 141.494 52.8853 142.653C52.5303 144.008 53.0254 145.289 54.2583 145.972C55.3511 146.57 56.6681 145.944 57.3313 145.018C57.789 144.382 58.0225 143.569 57.9571 142.793C57.9758 142.634 57.9851 142.466 57.9851 142.307Z"
      fill="" />
    <path
      d="M30.6925 81.4788C26.6855 78.9828 27.4047 50.957 20.3433 54.4439C14.9072 57.1268 17.784 66.5685 19.1944 70.7564C20.2406 73.8694 23.8179 82.8997 28.4508 83.0399C28.9739 83.4419 29.5903 83.6943 30.3282 83.6943C31.6359 83.6943 31.5425 82.0023 30.6925 81.4788Z"
      fill="" />
    <path
      d="M25.8447 90.3969C27.4139 90.0884 27.1524 88.0225 25.6019 87.9757C25.4618 87.9757 25.3123 87.9664 25.1629 87.957C18.5032 84.3673 14.7577 78.6649 9.58309 73.3645C6.33263 70.0272 1.69044 67.9426 0.270698 73.8693C-2.54077 85.5732 17.3917 92.0515 25.8447 90.3969Z"
      fill="" />
    <path
      d="M27.6007 94.5942C27.2458 94.5568 26.8909 94.5755 26.5453 94.6316C26.5173 94.6316 26.4892 94.6035 26.4519 94.5942C20.5581 94.0239 14.0945 97.651 9.58309 101.278C6.98645 103.372 2.91403 108.934 7.42545 111.496C10.6012 113.3 14.3654 108.757 16.2708 106.831C19.5867 103.466 23.0333 98.0904 27.8062 96.791C28.8991 96.4918 28.6749 94.7063 27.5821 94.5942H27.6007Z"
      fill="" />
    <path
      d="M145.822 11.4606C143.768 6.10412 136.211 7.33808 132.185 9.13293C131.111 9.60968 123.088 13.7977 120.856 16.7423C120.37 16.976 119.912 17.3126 119.482 17.7613C117.67 17.995 115.868 18.21 114.056 18.3596C116.204 17.3593 118.119 15.8543 119.753 14.0407C121.033 12.6291 124.526 8.96466 122.761 6.87067C120.678 4.40275 116.111 7.31003 114.411 8.84313C110.917 11.9748 109.115 16.6302 104.575 18.4063C102.95 18.2661 101.343 18.0417 99.7462 17.78C102.679 15.8075 105.248 12.5731 105.547 10.3669C105.995 7.02959 102.053 6.75849 99.8489 7.88027C96.0848 9.7873 94.581 14.9942 90.2844 15.9571C89.1729 15.7421 88.0707 15.5271 86.9498 15.3495C86.1839 15.2186 85.4087 15.1158 84.6334 15.0129C86.4828 14.2744 88.1734 13.2274 89.5651 11.685C90.5739 10.5632 92.8156 7.43156 90.4618 6.41261C87.9679 5.33757 85.4273 7.63722 83.8395 9.2451C82.6813 10.4136 81.5511 11.6008 80.3835 12.7694C79.9445 13.2087 79.328 13.9285 78.6555 14.3679C78.4687 14.4146 78.2819 14.4707 78.0858 14.5268C75.0315 14.4707 71.9585 14.6577 68.9322 15.069C70.2211 13.9379 71.5101 12.7974 72.6964 11.5634C74.0507 10.1519 76.7688 6.58088 73.4623 5.55258C70.0904 4.50558 64.4021 12.0682 64.2526 15.8543C64.1499 15.8636 64.0471 15.9103 63.9631 15.9758C61.7587 16.4806 59.5824 17.1069 57.4715 17.8922C57.3968 17.9202 57.3314 17.9482 57.2567 17.9763C59.3676 15.3308 60.75 12.4422 59.022 8.86183C58.8352 8.47855 58.3495 8.33833 57.9665 8.43181C54.4359 9.32924 49.1679 16.9667 50.6717 21.1453C47.6547 22.9121 44.8059 25.0529 42.2186 27.4273C43.0405 25.4735 43.4795 23.445 43.4048 21.0799C43.3488 19.3224 42.5081 16.3217 40.117 17.3687C37.1841 18.6587 36.8105 21.968 36.661 24.7911C36.5676 26.4831 36.661 29.4932 37.8006 31.3348C37.7912 31.4377 37.8006 31.5498 37.8286 31.662C37.8566 31.7461 37.894 31.8209 37.922 31.8957C37.2215 32.7184 36.5303 33.5597 35.8951 34.4104C35.0919 35.4854 34.3259 36.5978 33.6161 37.729C33.6254 35.2237 33.4199 32.7371 32.3645 30.4187C31.4958 28.521 28.6563 26.5205 27.5822 29.4091C26.4893 32.3725 28.264 38.9816 31.6172 41.0102C31.6172 41.0663 31.6172 41.1224 31.6172 41.1691C31.6172 41.2065 31.6266 41.2439 31.6359 41.2813C30.8233 42.9826 30.1695 44.7588 29.7678 46.6378C29.1514 49.5264 28.7591 54.5463 30.9167 56.9488C31.3931 57.4817 32.1963 57.0329 32.2337 56.4066C32.2337 56.2944 32.243 56.1729 32.2524 56.0607C32.271 55.7429 32.1309 55.5466 31.9255 55.4531C30.5151 51.2932 31.4678 46.9182 33.4479 42.8424C34.1298 43.5903 35.4375 43.9455 36.2968 44.1512C38.8187 44.7494 42.3961 44.7868 44.4696 42.9826C45.2169 42.3376 45.4504 41.113 45.0114 40.2436C44.4042 39.019 43.0686 38.6918 41.8263 38.5423C39.8741 38.3086 36.2594 38.9162 34.793 40.7671C34.793 40.7297 34.7743 40.7017 34.7649 40.6643C34.7649 40.5989 34.7463 40.5334 34.7276 40.468C36.1847 38.0094 37.9407 35.7004 39.6873 33.6999C41.7049 34.7563 44.7685 34.9339 46.4124 35.0834C48.8876 35.2984 54.3331 35.6256 55.0243 32.307C55.9116 28.0536 47.9162 28.8576 42.9752 30.2504C45.2169 28.091 47.6547 26.184 50.242 24.5387C51.2508 25.969 53.5205 27.1562 54.5853 27.661C57.1726 28.9043 60.2736 29.4558 63.0851 28.7267C63.4867 28.6239 63.7763 28.2312 63.7763 27.8199C63.7576 22.7719 58.2934 21.9306 53.9501 22.4354C57.0979 20.8275 60.4231 19.5655 63.8883 18.6868C64.701 20.4068 66.1861 21.996 67.447 23.2206C68.7454 24.4826 71.1272 26.4738 73.0139 25.2305C75.0595 23.8843 74.2375 20.6592 72.687 19.3224C71.8464 18.6026 70.5294 17.995 69.147 17.6585C72.0425 17.2752 74.9007 17.1817 77.7402 17.2939C78.0204 19.5468 79.5242 21.9867 80.5516 23.7348C81.5417 25.4174 83.6713 28.9884 86.1185 28.3902C89.0888 27.6703 88.2108 23.3982 86.8471 21.6688C85.6142 20.0983 83.5966 18.4998 81.4763 17.5556C84.54 17.8454 87.585 18.3222 90.658 18.8644C91.2091 21.9773 93.787 25.0622 95.6364 27.3992C97.0188 29.1474 100.531 33.5129 103.202 31.5872C107.275 28.6519 101.736 23.2206 96.5798 19.9488C96.7106 19.9768 96.8507 19.9955 96.9814 20.0235C100.391 20.6499 103.959 21.164 107.536 21.3323C108.059 25.0248 111.58 28.2406 114.541 30.0167C118.287 32.2696 123.032 32.8118 126.964 30.802C127.394 30.5776 127.553 30.0448 127.45 29.6054C126.609 25.9783 123.135 24.0339 120.043 22.5008C118.913 21.9399 117.689 21.3042 116.466 20.9116C118.81 20.5377 121.108 19.9207 123.303 18.9859C125.871 18.9205 128.384 19.2757 131.046 19.3692C132.905 19.4346 135.193 18.5091 136.958 18.0417C139.191 17.4434 147.298 15.3775 145.804 11.47L145.822 11.4606Z"
      fill="" />
    <path
      d="M139.845 23.4172C138.845 22.7254 137.519 22.875 136.51 23.464C135.408 24.109 134.763 25.3242 134.96 26.5862C135.184 28.0913 136.557 28.9139 137.986 28.8952C138.173 28.8952 138.35 28.8765 138.537 28.8391C139.667 28.7644 140.741 28.0446 141.04 26.8573C141.358 25.5953 140.919 24.1651 139.845 23.4172Z"
      fill="" />
    <path
      d="M94.6557 3.18759C94.7024 3.70174 95.0853 4.25328 95.6645 4.19719C95.8699 4.17849 96.0754 4.1598 96.2716 4.1411C96.5705 4.19719 96.8694 4.21589 97.1589 4.1411C98.149 3.89805 98.616 2.84171 98.7468 1.92559C98.8215 1.43948 98.6347 0.934681 98.2424 0.700977C98.2237 0.654236 98.1957 0.598147 98.177 0.551406C98.0089 0.205524 97.5699 -0.0188324 97.2056 -0.00948428C96.2903 0.00921206 95.1974 0.252264 94.7398 1.14034C94.4876 1.63579 94.4782 2.14059 94.637 2.608C94.637 2.79497 94.637 2.98193 94.6557 3.16889V3.18759Z"
      fill="" />
    <path
      d="M60.9274 34.9339C60.9274 34.9339 60.8993 34.9152 60.89 34.9059C59.5917 34.13 57.6115 34.3917 57.0044 35.8874C56.1451 38.0094 59.4889 40.4213 61.2823 39.1032C61.712 38.7853 62.3004 38.4208 62.5806 37.8318C62.8608 37.2335 62.8515 36.5792 62.5059 36.0089C62.1603 35.448 61.5719 35.0741 60.9274 34.9245V34.9339Z"
      fill="" />
    <path
      d="M26.4893 43.4408C26.452 43.2352 26.3492 43.0108 26.1998 42.7958C25.9009 42.1508 25.4712 41.6086 24.9201 41.272C24.0328 40.7298 23.1174 41.029 22.3982 41.487C22.2768 41.5244 22.1647 41.5618 22.0526 41.6179C21.3428 41.9638 20.9131 42.7023 20.7263 43.4502C20.306 45.1515 21.1093 47.0305 22.7718 47.6662C23.9768 48.1336 25.2751 47.9092 26.0597 46.8342C26.6388 46.0303 26.7695 44.8898 26.5454 43.8147C26.536 43.6839 26.5174 43.5623 26.4987 43.4502L26.4893 43.4408Z"
      fill="" />
    <path fill-rule="evenodd" clip-rule="evenodd"
      d="M47.5519 176.961C47.5332 175.203 47.5052 173.175 47.5146 171.146C47.5146 170.725 47.6266 170.305 47.7294 169.893C48.3645 167.304 48.9623 164.705 49.2238 162.041C49.2799 161.461 49.4854 160.901 49.6628 160.34C50.0084 159.274 50.3727 158.218 50.737 157.152C50.8397 156.853 50.9051 156.498 51.1013 156.283C51.4842 155.853 51.5122 155.31 51.7271 154.834C52.1007 154.011 52.5304 153.216 52.9694 152.431C53.1095 152.169 53.6512 152.207 53.7913 152.478C53.9127 152.712 54.0248 152.964 54.0715 153.216C54.4171 154.983 54.8094 156.75 55.0616 158.535C55.3979 160.91 55.6594 163.303 55.8555 165.696C55.9863 167.229 55.9396 168.781 56.005 170.333C56.0423 171.342 56.0891 172.361 56.2292 173.362C56.4066 174.652 56.3506 175.914 56.1077 177.176C55.9396 178.064 55.7621 178.961 55.6501 179.859C55.4726 181.261 54.716 182.345 53.7633 183.299C52.8666 184.196 51.2507 184.224 50.242 183.392C49.2238 182.551 48.514 181.495 48.2057 180.214C47.9722 179.232 47.8041 178.232 47.5426 176.961H47.5519Z"
      fill="" />
    <path fill-rule="evenodd" clip-rule="evenodd"
      d="M60.7406 165.547C61.4785 165.5 61.7587 165.837 62.0202 166.164C62.6927 167.024 63.5707 167.603 64.5235 168.118C65.4575 168.632 66.3542 169.221 67.2882 169.735C67.9421 170.09 68.6146 170.445 69.3244 170.67C69.9129 170.847 70.3145 171.231 70.7909 171.576C72.3694 172.717 72.6496 174.353 72.6776 176.11C72.687 176.933 72.304 177.428 71.5101 177.587C70.1744 177.858 68.8761 177.84 67.6151 177.195C66.1113 176.428 64.7943 175.465 63.907 173.998C63.2999 172.997 62.6087 172.016 62.179 170.941C61.656 169.623 61.3477 168.22 60.8807 166.874C60.7499 166.491 60.7966 166.052 60.7593 165.556L60.7406 165.547Z"
      fill="" />
    <path fill-rule="evenodd" clip-rule="evenodd"
      d="M44.1707 169.968C44.7031 170.118 44.8339 170.482 44.8058 170.856C44.7778 171.221 44.6938 171.604 44.535 171.922C43.5075 173.904 42.4614 175.886 41.3966 177.849C40.7521 179.045 39.8274 179.98 38.6692 180.7C37.2868 181.551 35.8577 181.597 34.3819 181.018C34.0364 180.887 33.7094 180.681 33.4292 180.448C32.7474 179.868 32.5325 179.111 32.8781 178.297C33.0836 177.821 33.3825 177.344 33.7468 176.979C35.288 175.418 37.0066 174.091 39.0895 173.306C39.6313 173.1 40.145 172.791 40.6213 172.455C41.2752 172.006 41.873 171.501 42.6669 171.249C43.0405 171.137 43.3114 170.725 43.629 170.445C43.8251 170.277 44.0119 170.099 44.1614 169.968H44.1707Z"
      fill="" />
  </g>
  
</svg>