<svg width="50" height="50" viewBox="0 0 50 50" fill="none" xmlns="http://www.w3.org/2000/svg">
  <g>

    <!-- Fondo esquina -->
    <path class="fondo-adorno" d="M50 -9H-9V50H50V-9Z" />

    <g>
      <path fill-rule="evenodd" clip-rule="evenodd"
        d="M39.9051 39.6179C39.9525 39.4341 40.0189 39.333 39.9904 39.2687C39.3361 37.936 38.6819 36.5942 38.0181 35.2707C37.7621 34.756 37.4492 34.2597 37.2027 33.745C36.3493 31.962 35.2968 30.2893 34.0925 28.7177C34.0356 28.6441 33.9787 28.5614 33.9219 28.4879C31.5418 24.8208 28.4981 21.6959 25.4069 18.617C23.9561 17.1741 22.2683 15.9977 20.4477 15.0234C19.1677 14.3341 17.7833 14.0216 16.3135 14.2698C15.2989 14.4444 14.2464 14.4536 13.3077 14.9591C10.501 16.4664 8.88903 19.1777 10.0364 22.7253C10.6337 24.5634 11.563 26.2178 12.9853 27.6332C15.4412 30.0963 18.2953 32.0447 21.3391 33.7266C23.3493 34.8387 25.3974 35.8957 27.4835 36.8607C29.7213 37.8992 32.1392 38.3496 34.6046 38.6069C36.1122 38.7632 37.5914 39.1584 39.0896 39.4525C39.3646 39.5076 39.6301 39.572 39.8956 39.6271L39.9051 39.6179Z" />
      <path fill-rule="evenodd" clip-rule="evenodd"
        d="M36.5769 21.5577C36.2735 21.2452 35.9985 20.9052 35.7425 20.5651C34.5667 18.9751 33.4952 17.3116 32.2056 15.8135C30.0247 13.286 28.6403 10.3542 27.3223 7.36716C26.7629 6.08965 26.7629 4.75699 26.9999 3.42433C27.237 2.11005 28.3464 1.61375 29.5411 2.31224C30.2523 2.72583 30.9635 3.20375 31.5229 3.78277C32.8978 5.22572 34.0736 6.81572 34.8606 8.63549C35.2399 9.5178 35.5718 10.4093 35.9511 11.2916C37.4113 14.7106 37.7053 18.3042 37.582 21.9529C37.582 21.9897 37.5251 22.0264 37.3829 22.2286C37.0794 21.9805 36.8045 21.7875 36.5769 21.5485V21.5577ZM29.0765 6.62271C30.3471 9.30642 31.5229 12.0453 33.571 14.3062C34.1495 14.9404 34.6425 15.648 35.2968 16.466C35.3727 15.3815 35.1261 14.5543 34.8417 13.7639C34.2727 12.1923 33.6659 10.6207 32.9926 9.08584C32.3099 7.5326 31.2384 6.21832 30.0721 4.98676C29.7782 4.67427 29.4179 4.42612 28.8869 3.98496C28.6878 5.07866 28.7162 5.86907 29.067 6.62271H29.0765Z" />
      <path fill-rule="evenodd" clip-rule="evenodd"
        d="M23.7095 40.7483C23.5578 40.9505 23.5388 41.0056 23.5009 41.024C19.9735 42.3107 16.3798 43.2022 12.568 42.9541C11.5819 42.8897 10.6052 42.8805 9.61905 42.807C7.5804 42.6692 5.65552 42.0993 3.80651 41.3089C3.05742 40.9872 2.36522 40.4818 1.72992 39.9671C0.667924 39.1031 0.791191 37.9175 1.99542 37.2834C3.21862 36.64 4.51767 36.1989 5.94947 36.3091C9.28718 36.5573 12.5964 36.8882 15.773 38.0738C17.6504 38.7723 19.6227 39.2226 21.5571 39.7833C21.9743 39.9119 22.401 40.0498 22.7992 40.2244C23.1026 40.3531 23.3776 40.5553 23.719 40.7483H23.7095ZM3.15224 38.8366C3.7591 39.1859 4.11942 39.434 4.51767 39.5994C6.10118 40.2704 7.73211 40.831 9.46734 40.9597C11.1836 41.0883 12.9094 41.1343 14.6256 41.1527C15.498 41.1527 16.3798 41.1159 17.4134 40.6931C16.3988 40.3623 15.5549 40.1233 14.7489 39.8016C11.8758 38.6528 8.83204 38.4506 5.79776 38.1473C4.94436 38.0646 4.16683 38.2943 3.16172 38.8274L3.15224 38.8366Z" />
    </g>
  </g>

</svg>